<svg width="215" height="30" viewBox="0 0 215 30" fill="none" xmlns="http://www.w3.org/2000/svg">
<g clip-path="url(#clip0_2_138)">
<path d="M135.362 27.3028C145.699 18.184 150.704 14.1792 151.128 9.63961L151.449 6.23489C151.6 4.62735 150.709 3.35376 146.338 3.35376C141.966 3.35376 140.819 4.81414 140.667 6.42169L140.355 9.75848H137.17L137.496 6.27735C137.811 2.90942 140.198 0.299988 146.624 0.299988C153.051 0.299988 154.971 2.64055 154.651 6.03678L154.296 9.7981C153.813 14.9519 148.944 19.3189 140.856 26.4594H153.155L152.871 29.4877H135.154L135.36 27.3057L135.362 27.3028Z" fill="#191918"/>
<path d="M177.588 7.55377V22.7151C177.588 27 175.451 30 167.374 30C159.298 30 157.161 27 157.161 22.7151V7.55377C157.161 3.26886 159.298 0.26886 167.374 0.26886C175.451 0.26886 177.588 3.26886 177.588 7.55377ZM167.372 4.69527C163.368 4.69527 162.584 6.26037 162.584 8.01509V22.2566C162.584 24.0085 163.368 25.5736 167.372 25.5736C171.375 25.5736 172.159 24.0085 172.159 22.2566V8.01226C172.159 6.26037 171.375 4.69244 167.372 4.69244V4.69527Z" fill="#191918"/>
<path d="M179.541 27.6226C186.128 18.883 189.862 14.0264 190.261 9.78113L190.716 4.91886C190.823 3.78679 190.258 2.9915 187.666 2.9915C185.074 2.9915 184.352 3.8915 184.245 5.02358L183.843 9.31981H181.346L181.765 4.86792C182.018 2.17641 183.643 0.356598 187.916 0.356598C192.189 0.356598 193.485 2.04905 193.232 4.74622L192.735 10.0358C192.288 14.8047 188.737 19.483 183.25 26.8557H191.506L191.259 29.4821H179.37L179.544 27.6226H179.541Z" fill="#191918"/>
<path d="M214.646 24.9368H211.508L211.081 29.4849H205.655L206.083 24.9368H192.923L193.187 22.1236L208.228 0.783966H213.771L211.86 21.15H214.997L214.643 24.934L214.646 24.9368ZM206.437 21.15L207.719 7.47453L198.908 21.15H206.434H206.437Z" fill="#191918"/>
<path d="M5.02654 0.390564H9.05509L10.0475 22.1462L18.6387 0.390564H22.6672L17.6407 29.0887H14.3543L18.3997 7.08396L9.88722 28.4462H8.00648L6.95226 7.08396L3.28918 29.0887H0L5.02654 0.390564Z" fill="#191918"/>
<path d="M33.6509 4.31887L29.999 25.166C29.538 27.7981 28.2392 29.4849 24.6632 29.4849C21.0873 29.4849 20.3789 27.8009 20.8399 25.166L24.4918 4.31887C24.9528 1.68679 26.2488 0 29.8275 0C33.4063 0 34.1119 1.68396 33.6509 4.31887ZM28.8801 5.41132C26.9151 5.41132 26.3331 6.33113 26.1392 7.42358L23.5753 22.0585C23.3841 23.1509 23.6428 24.0708 25.6106 24.0708C27.5785 24.0708 28.1576 23.1509 28.3488 22.0585L30.9127 7.42358C31.1039 6.33113 30.8452 5.41132 28.8773 5.41132H28.8801Z" fill="#191918"/>
<path d="M36.4143 0.390564H38.4469L37.0581 22.1462L43.2794 0.390564H45.312L40.2854 29.0887H38.6268L42.5766 7.08396L36.4284 28.4462H35.4782L36.8023 7.08396L33.0436 29.0887H31.385L36.4143 0.390564Z" fill="#191918"/>
<path d="M48.3791 0.390564H63.3547L62.9021 2.96887H53.4366L51.7076 12.8434H60.2005L59.7478 15.4217H51.255L49.3124 26.5104H59.045L58.5924 29.0887H43.3497L48.3791 0.390564Z" fill="#191918"/>
<path d="M65.5559 0.390564H67.9174L68.786 22.7094L72.4744 0.390564H74.6644L69.6379 29.0887H67.2764L66.3852 6.80377L62.7193 29.0887H60.5294L65.5559 0.390564Z" fill="#191918"/>
<path d="M103.078 6.0283H94.8493L90.8095 29.0915H78.6648L82.7046 6.0283H75.5443L76.5311 0.390564H104.065L103.078 6.0283Z" fill="#191918"/>
<path d="M112.836 0.390564L108.501 25.1377C108.023 27.8717 106.733 29.4821 103.353 29.4821C99.9742 29.4821 99.2489 27.8745 99.7297 25.1377L104.065 0.390564H106.257L101.97 24.8632C101.762 26.0575 102.038 26.9009 103.806 26.9009C105.574 26.9009 106.148 26.0575 106.356 24.8632L110.643 0.390564H112.836Z" fill="#191918"/>
<path d="M114.851 0.390564H117.539L116.932 22.1462L123.926 0.390564H126.614L121.587 29.0887H119.397L123.378 7.08396L116.457 28.4462H115.203L115.748 7.08396L112.021 29.0887H109.831L114.851 0.390564Z" fill="#191918"/>
</g>
<defs>
<clipPath id="clip0_2_138">
<rect width="215" height="30" fill="white"/>
</clipPath>
</defs>
</svg>
